<svg id="visual" viewBox="0 0 900 600" width="900" height="600" xmlns="http://www.w3.org/2000/svg" xmlns:xlink="http://www.w3.org/1999/xlink" version="1.1"><rect x="0" y="0" width="900" height="600" fill="#FFE5E5"></rect><path d="M0 290L9.3 295C18.7 300 37.3 310 56.2 315C75 320 94 320 112.8 315.8C131.7 311.7 150.3 303.3 169 300.5C187.7 297.7 206.3 300.3 225 303.2C243.7 306 262.3 309 281.2 311C300 313 319 314 337.8 307.5C356.7 301 375.3 287 394 286.3C412.7 285.7 431.3 298.3 450 306.2C468.7 314 487.3 317 506.2 319.7C525 322.3 544 324.7 562.8 319.3C581.7 314 600.3 301 619 292C637.7 283 656.3 278 675 281.7C693.7 285.3 712.3 297.7 731.2 306.3C750 315 769 320 787.8 313.5C806.7 307 825.3 289 844 283.7C862.7 278.3 881.3 285.7 890.7 289.3L900 293L900 601L890.7 601C881.3 601 862.7 601 844 601C825.3 601 806.7 601 787.8 601C769 601 750 601 731.2 601C712.3 601 693.7 601 675 601C656.3 601 637.7 601 619 601C600.3 601 581.7 601 562.8 601C544 601 525 601 506.2 601C487.3 601 468.7 601 450 601C431.3 601 412.7 601 394 601C375.3 601 356.7 601 337.8 601C319 601 300 601 281.2 601C262.3 601 243.7 601 225 601C206.3 601 187.7 601 169 601C150.3 601 131.7 601 112.8 601C94 601 75 601 56.2 601C37.3 601 18.7 601 9.3 601L0 601Z" fill="#ffffff" stroke-linecap="round" stroke-linejoin="miter"></path></svg>